PathFileType	4	(X/Y/Z)	/Users/itak/Documents/Research/Walk-IL/dataset/trc/00351_00011.trc
DataRate	CameraRate	NumFrames	NumMarkers	Units	OrigDataRate	OrigDataStartFrame	OrigNumFrames
100.000000	100.000000	4	53	mm	100.000000	469	751
Frame#	Time	RPSI			LPSI			L3			STRN			T10			C7			CLAV			RBAK			LBAK			LSHO			LUPA			LAEL			LAOL			LWTS			LWPS			LFRA			LIFD			LHPS			LHTS			RSHO			RUPA			RAEL			RAOL			RWTS			RWPS			RFRA			RIFD			RHTS			RHPS			RBHD			LFHD			RFHD			LBHD			LHIP			RHIP			RASI			LASI			LKNE			LTHI			LANK			LTIP			LTOE			LMT1			LMT5			LHEE			RKNE			RTHI			RANK			RTIP			RTOE			RMT1			RMT5			RHEE			
		X1	Y1	Z1	X2	Y2	Z2	X3	Y3	Z3	X4	Y4	Z4	X5	Y5	Z5	X6	Y6	Z6	X7	Y7	Z7	X8	Y8	Z8	X9	Y9	Z9	X10	Y10	Z10	X11	Y11	Z11	X12	Y12	Z12	X13	Y13	Z13	X14	Y14	Z14	X15	Y15	Z15	X16	Y16	Z16	X17	Y17	Z17	X18	Y18	Z18	X19	Y19	Z19	X20	Y20	Z20	X21	Y21	Z21	X22	Y22	Z22	X23	Y23	Z23	X24	Y24	Z24	X25	Y25	Z25	X26	Y26	Z26	X27	Y27	Z27	X28	Y28	Z28	X29	Y29	Z29	X30	Y30	Z30	X31	Y31	Z31	X32	Y32	Z32	X33	Y33	Z33	X34	Y34	Z34	X35	Y35	Z35	X36	Y36	Z36	X37	Y37	Z37	X38	Y38	Z38	X39	Y39	Z39	X40	Y40	Z40	X41	Y41	Z41	X42	Y42	Z42	X43	Y43	Z43	X44	Y44	Z44	X45	Y45	Z45	X46	Y46	Z46	X47	Y47	Z47	X48	Y48	Z48	X49	Y49	Z49	X50	Y50	Z50	X51	Y51	Z51	X52	Y52	Z52	X53	Y53	Z53	

470	4.69	727.0647583007812	936.9207763671875	49.60868072509766	857.4710083007812	944.5048828125	52.66398620605469	783.4735717773438	997.1934814453125	48.83221435546875	792.6143188476562	1182.994262695312	278.9943237304688	791.5056762695312	1118.082397460938	31.82076263427734	811.436279296875	1364.591918945312	82.32614898681641	799.585693359375	1309.114868164062	237.2172088623047	741.43505859375	1228.260498046875	26.99720001220703	910.8955688476562	1325.701904296875	74.10650634765625	965.7069702148438	1341.7275390625	159.3097839355469	1032.18896484375	1224.759643554688	131.2093353271484	1051.684326171875	1021.6416015625	120.0176544189453	987.322998046875	1012.924377441406	66.10201263427734	1034.286865234375	767.5464477539062	188.2257385253906	1081.222045898438	765.8202514648438	137.1758270263672	1064.9345703125	917.333740234375	119.1893005371094	1033.210693359375	607.1389770507812	163.2394866943359	1077.629638671875	697.0908813476562	123.5636215209961	1054.339111328125	688.5960693359375	183.6073760986328	646.8246459960938	1355.71728515625	129.8019866943359	581.030517578125	1294.25634765625	112.0752716064453	536.5340576171875	1029.94384765625	95.49900054931641	624.1243286132812	1019.138916015625	60.20265197753906	572.0794067382812	809.7182006835938	219.2587432861328	505.6529846191406	795.0374755859375	183.0262908935547	522.9623413085938	962.7974853515625	120.6583023071289	554.7609252929688	638.363037109375	239.5721435546875	550.8060302734375	711.4210205078125	254.8689422607422	501.7705993652344	712.838134765625	204.4582366943359	733.9884033203125	1575.409912109375	132.6525115966797	799.0811767578125	1559.160522460938	330.7691955566406	705.3216552734375	1558.254150390625	291.9709167480469	876.1282958984375	1577.203979492188	161.5188293457031	965.0906372070312	903.3603515625	155.2367706298828	617.8234252929688	873.9691162109375	122.595817565918	653.8900756835938	899.5526733398438	230.5861358642578	890.0913696289062	920.153076171875	261.7901916503906	961.3294067382812	466.8180847167969	338.2011413574219	965.5296630859375	597.1985473632812	287.2311706542969	995.4193115234375	36.28860092163086	303.972412109375	987.1677856445312	244.4794464111328	333.07373046875	909.7278442382812	35.51767349243164	503.1938171386719	875.8696899414062	24.00886154174805	430.1304626464844	990.7247314453125	30.97275161743164	430.1308288574219	930.8553466796875	30.30214309692383	263.9271850585938	675.0510864257812	413.6839294433594	122.3894348144531	634.005859375	659.9544677734375	179.1911468505859	682.5989379882812	124.2869491577148	-185.1310882568359	686.6294555664062	308.5968933105469	55.90437316894531	792.912109375	34.35446166992188	-78.55416107177734	809.856201171875	48.64943313598633	-133.4845428466797	691.9741821289062	47.52078247070312	-117.1671295166016	708.281005859375	167.4501495361328	-231.09814453125	
471	4.7	730.8781127929688	938.0170288085938	57.19481658935547	861.1550903320312	946.2073364257812	62.43307113647461	787.7132568359375	998.6871337890625	58.02320861816406	793.227783203125	1184.62744140625	288.1222839355469	796.4647216796875	1119.5478515625	41.29069519042969	815.9690551757812	1366.129760742188	91.7064208984375	801.0833129882812	1310.555541992188	246.2071838378906	746.68115234375	1229.876831054688	35.18336486816406	915.491943359375	1327.030517578125	85.57466125488281	968.546142578125	1343.29638671875	171.8252105712891	1036.047729492188	1226.513671875	145.7573699951172	1056.708129882812	1023.438537597656	136.1278839111328	993.7240600585938	1014.197875976562	80.67154693603516	1038.4970703125	769.7072143554688	205.8397369384766	1086.587280273438	767.7158203125	155.8986968994141	1070.290405273438	919.1727294921875	136.3900756835938	1037.94482421875	608.927001953125	181.7506713867188	1083.338745117188	698.8546752929688	142.6163635253906	1058.591552734375	690.6533813476562	202.09521484375	650.4822998046875	1357.607543945312	136.1302947998047	584.958740234375	1296.226196289062	117.2400360107422	541.6127319335938	1032.03173828125	98.42466735839844	630.5003051757812	1021.454040527344	66.24326324462891	570.6856079101562	808.7506713867188	219.2431030273438	505.9271240234375	795.3067016601562	179.1393585205078	526.8618774414062	964.550048828125	122.0123977661133	550.960693359375	636.9273681640625	233.9358825683594	546.7996215820312	709.5067749023438	250.9209899902344	500.2022399902344	712.8447265625	198.0910491943359	736.9820556640625	1576.695678710938	140.6042022705078	799.2057495117188	1560.665283203125	339.8595581054688	705.9391479492188	1559.546875	299.4935607910156	878.7130737304688	1578.717651367188	171.7254333496094	967.1771850585938	904.9515380859375	165.9509887695312	620.7193603515625	875.1069946289062	128.5504608154297	655.2728881835938	901.1812744140625	236.9759979248047	890.8187255859375	921.7167358398438	272.031982421875	962.1892700195312	466.5852661132812	345.8342590332031	966.9999389648438	598.7050170898438	297.0983276367188	995.4017333984375	36.54539108276367	304.2593078613281	987.4605102539062	244.0322113037109	337.1260070800781	909.6754150390625	34.80180358886719	503.3239440917969	875.8703002929688	23.56228637695312	430.2155151367188	990.8217163085938	30.80911445617676	430.3039855957031	930.7753295898438	30.54000091552734	264.2133483886719	675.8279418945312	414.2214660644531	137.9883728027344	635.5368041992188	661.1099243164062	188.9837646484375	689.4209594726562	132.8898315429688	-176.8406677246094	687.537841796875	311.072509765625	69.73918151855469	793.3635864257812	33.12664794921875	-75.68037414550781	812.0057373046875	51.33985137939453	-127.9572906494141	693.8673095703125	51.92873764038086	-114.4405670166016	715.7495727539062	178.5032043457031	-219.6974639892578	
472	4.71	734.7367553710938	939.0473022460938	64.44306182861328	864.8506469726562	947.8387451171875	72.01585388183594	791.9815063476562	1000.195251464844	66.86278533935547	793.5082397460938	1186.197143554688	297.0616149902344	801.3864135742188	1121.011108398438	50.75583648681641	820.38232421875	1367.688232421875	101.070930480957	802.2570190429688	1311.935913085938	255.0317687988281	751.92919921875	1231.526489257812	43.24875259399414	919.934814453125	1328.38623046875	97.13103485107422	971.1145629882812	1344.850952148438	184.4476776123047	1039.650024414062	1228.290893554688	160.4972839355469	1061.4970703125	1025.259765625	152.4435272216797	1000.035522460938	1015.471862792969	95.41658782958984	1042.474853515625	771.9295043945312	223.6741943359375	1091.733520507812	769.7058715820312	174.9091033935547	1075.465698242188	921.0504150390625	153.8247222900391	1042.501586914062	610.8138427734375	200.6619262695312	1088.8818359375	700.6976318359375	162.0186309814453	1062.626586914062	692.80908203125	220.90087890625	654.0079345703125	1359.464477539062	142.2335662841797	588.81201171875	1298.173095703125	122.0861053466797	546.4804077148438	1034.087646484375	101.0842590332031	636.5394897460938	1023.695617675781	72.02611541748047	569.321533203125	808.1736450195312	219.0880432128906	506.4580078125	795.9248657226562	175.2792510986328	530.6116333007812	966.3651123046875	123.1244430541992	547.7254638671875	636.0111694335938	228.3016052246094	543.1412963867188	708.1154174804688	246.8557586669922	499.1267700195312	713.2620849609375	191.7686767578125	739.8855590820312	1577.967163085938	148.5371551513672	799.1805419921875	1562.21142578125	348.8924255371094	706.4288940429688	1560.87890625	306.9394226074219	881.1364135742188	1580.194091796875	181.8901062011719	968.7488403320312	905.8433227539062	175.7818908691406	623.6331176757812	876.1405639648438	134.0826110839844	656.5353393554688	902.8004150390625	242.9799652099609	891.3870849609375	923.1260986328125	282.0489807128906	962.8074340820312	466.0792846679688	352.6989440917969	968.4712524414062	599.7953491210938	306.2499084472656	995.3096313476562	36.76531982421875	304.4673767089844	987.583740234375	243.5961761474609	340.7709655761719	909.4921264648438	34.36945724487305	503.3407287597656	875.76123046875	23.19281005859375	430.2277526855469	990.7547607421875	30.74677467346191	430.4287109375	930.6527709960938	30.71366500854492	264.4180603027344	676.1932373046875	415.0848999023438	153.8424530029297	636.8116455078125	662.358154296875	198.6569671630859	696.5084228515625	141.9934844970703	-167.4214630126953	688.39794921875	313.7991333007812	84.18330383300781	793.7412719726562	31.6364860534668	-71.91964721679688	814.1903076171875	54.58675003051758	-121.2386322021484	696.0035400390625	57.35298538208008	-110.9411010742188	723.5615234375	189.670654296875	-207.1224212646484	
473	4.72	738.654052734375	939.9853515625	71.36210632324219	868.56103515625	949.3795166015625	81.41161346435547	796.2976684570312	1001.714416503906	75.33612823486328	793.4442749023438	1187.65869140625	305.7587280273438	806.279052734375	1122.4794921875	60.17729949951172	824.6563110351562	1369.260131835938	110.4178237915039	803.1129760742188	1313.245239257812	263.7086181640625	757.1796875	1233.199462890625	51.19329833984375	924.2037353515625	1329.768432617188	108.7551422119141	973.3936157226562	1346.37060546875	197.1578521728516	1042.95947265625	1230.056762695312	175.3997802734375	1066.031127929688	1027.066162109375	168.9640045166016	1006.245300292969	1016.717224121094	110.3311538696289	1046.200439453125	774.192138671875	241.6793518066406	1096.632568359375	771.7628173828125	194.1804504394531	1080.433837890625	922.9280395507812	171.4752044677734	1046.911987304688	612.8289794921875	220.0023345947266	1094.251708984375	702.5956420898438	181.7612609863281	1066.454956054688	695.0756225585938	240.0198211669922	657.3952026367188	1361.256591796875	148.1255645751953	592.5977172851562	1300.065063476562	126.6067047119141	551.1053466796875	1036.082397460938	103.4637222290039	642.2041015625	1025.830078125	77.48287200927734	567.9887084960938	807.946533203125	218.8008422851562	507.23388671875	796.830078125	171.5226898193359	534.18505859375	968.2017211914062	124.0066299438477	545.1188354492188	635.5621948242188	222.8174896240234	539.8945922851562	707.213623046875	242.7773590087891	498.5818786621094	714.0029907226562	185.6424560546875	742.7019653320312	1579.2236328125	156.4535675048828	798.9935302734375	1563.776489257812	357.8590698242188	706.782958984375	1562.234375	314.3030395507812	883.3951416015625	1581.625732421875	192.006103515625	969.9950561523438	906.276123046875	185.0867767333984	626.5701904296875	877.0550537109375	139.2075653076172	657.6776733398438	904.3846435546875	248.6204986572266	891.7909545898438	924.3564453125	291.8368530273438	963.18212890625	465.3576965332031	358.8235473632812	969.8881225585938	600.4109497070312	314.6245422363281	995.1660766601562	36.9483642578125	304.6070556640625	987.6085205078125	243.1932830810547	344.0073547363281	909.2493896484375	34.12066650390625	503.3059997558594	875.5973510742188	22.8675594329834	430.2162170410156	990.5866088867188	30.74358749389648	430.5179748535156	930.5028076171875	30.84642791748047	264.562744140625	676.2119750976562	416.3365478515625	169.8249969482422	637.8314819335938	663.6858520507812	208.1411285400391	703.5173950195312	151.5545959472656	-156.9483337402344	689.2111206054688	316.7718200683594	99.12455749511719	793.9675903320312	30.00320816040039	-67.09912109375	816.353271484375	58.32815551757812	-113.1299514770508	698.403564453125	63.70283126831055	-106.5175476074219	731.6683959960938	200.7757263183594	-193.4627685546875	
